<?xml version="1.0" standalone="no"?>
<!DOCTYPE svg PUBLIC "-//W3C//DTD SVG 20010904//EN"
 "http://www.w3.org/TR/2001/REC-SVG-20010904/DTD/svg10.dtd">
<svg version="1.0" xmlns="http://www.w3.org/2000/svg"
 width="673.000000pt" height="800.000000pt" viewBox="0 0 673.000000 800.000000"
 preserveAspectRatio="xMidYMid meet">

<g transform="translate(0.000000,800.000000) scale(0.100000,-0.100000)"
fill="#000000" stroke="none">
<path d="M3260 7985 c-69 -20 -125 -53 -171 -102 -20 -21 -85 -123 -144 -228
-136 -237 -914 -1582 -1792 -3095 -1187 -2045 -1131 -1946 -1144 -2008 -35
-165 78 -372 235 -431 52 -19 87 -20 3107 -27 3412 -8 3112 -14 3214 63 135
103 200 315 140 458 -6 17 -131 235 -277 485 -467 802 -1215 2090 -1997 3440
-833 1437 -800 1386 -918 1430 -76 28 -182 35 -253 15z m1325 -3091 l1195
-2099 -2377 -7 c-1307 -4 -2379 -6 -2380 -4 -2 2 529 951 1179 2109 651 1158
1184 2104 1185 2103 1 -1 540 -947 1198 -2102z"/>
<path d="M3352 5399 c-97 -48 -153 -188 -103 -257 10 -15 40 -42 65 -61 35
-27 49 -45 59 -80 10 -35 18 -46 33 -46 11 -1 36 -11 56 -23 47 -29 54 -28
100 13 21 20 43 33 49 30 5 -4 9 -39 9 -78 -1 -40 6 -107 14 -150 9 -44 19
-116 22 -161 l7 -82 -74 -17 c-128 -30 -167 -22 -278 57 l-41 28 -47 -23 c-61
-31 -64 -45 -12 -52 23 -3 49 -13 58 -22 15 -15 7 -16 -114 -10 l-130 7 -12
-32 c-12 -32 -13 -32 -60 -26 -46 7 -103 39 -176 99 -27 22 -28 27 -25 98 l3
74 14 -48 c7 -26 17 -50 22 -53 5 -3 25 0 45 6 29 10 35 16 30 34 -3 11 -23
107 -45 211 -44 212 -80 359 -117 483 -21 71 -28 82 -47 82 -51 -1 -52 -8 -24
-147 36 -177 56 -349 63 -543 l6 -165 -51 -50 c-28 -27 -51 -55 -51 -62 0 -10
-22 -13 -85 -13 l-85 0 0 -54 0 -55 51 -3 50 -3 -1 -687 -1 -688 61 0 60 0 0
458 c0 252 3 561 7 685 l6 227 415 0 c372 0 416 2 427 16 9 13 16 14 31 7 10
-6 54 -18 96 -27 81 -18 101 -32 96 -67 -2 -18 -23 -28 -128 -63 -127 -43
-366 -140 -452 -182 -64 -33 -78 -55 -78 -132 0 -51 -11 -97 -56 -231 -31 -91
-76 -217 -100 -280 -25 -63 -43 -115 -42 -116 2 -1 16 -9 32 -17 l28 -15 -48
-30 c-27 -17 -74 -43 -105 -57 -59 -27 -97 -61 -85 -74 12 -11 205 -7 264 6
46 10 55 10 69 -4 21 -20 120 -15 134 7 5 8 6 32 3 54 -11 67 -6 104 30 214
20 58 45 141 57 183 12 43 25 76 29 73 4 -2 20 -77 35 -166 32 -179 26 -170
120 -186 41 -7 51 -12 59 -35 8 -22 5 -33 -19 -63 -15 -20 -54 -58 -87 -83
-35 -28 -57 -52 -55 -61 5 -25 82 -15 157 21 40 19 84 32 115 33 l50 2 -62
-19 c-59 -17 -63 -21 -63 -48 0 -28 2 -30 39 -30 28 0 42 6 52 21 18 26 62 36
234 50 129 11 152 10 295 -10 127 -18 157 -25 169 -41 9 -14 25 -20 52 -20 36
0 39 2 39 29 0 26 -4 30 -47 40 -27 6 -96 17 -154 25 -130 19 -228 41 -243 56
-7 7 -12 122 -14 358 l-3 348 98 -4 c85 -3 102 0 130 17 56 36 63 55 88 278
14 114 34 289 45 388 12 99 24 197 27 218 4 30 2 37 -11 37 -9 0 -16 -1 -16
-3 0 -2 -4 -28 -10 -58 -5 -30 -23 -175 -40 -324 -47 -422 -62 -475 -131 -490
-38 -8 -47 -1 -27 22 28 32 58 101 73 168 11 45 16 122 16 238 1 149 -3 191
-26 312 -15 76 -35 157 -45 180 -26 60 -98 176 -134 213 -52 56 -147 125 -211
154 -48 22 -61 32 -66 55 -15 73 -74 155 -146 202 -39 26 -56 31 -107 31 -42
0 -74 -7 -104 -21z m496 -1942 c-3 -397 -1 -385 -89 -404 -30 -7 -63 -15 -74
-18 -18 -6 -20 -2 -17 38 2 24 -2 63 -9 88 -7 24 -14 58 -15 74 0 17 -31 132
-67 257 -82 284 -85 295 -60 301 10 3 89 5 176 6 l158 1 -3 -343z"/>
<path d="M89 1997 c-31 -16 -51 -36 -66 -67 l-23 -44 0 -881 0 -880 23 -40
c14 -26 37 -48 67 -62 l44 -23 3231 0 3231 0 44 23 c33 16 51 34 68 67 l22 44
0 877 0 876 -23 43 c-16 30 -37 51 -67 67 l-43 23 -3232 0 -3232 0 -44 -23z
m6476 -91 c68 -29 65 15 65 -898 0 -805 -1 -824 -20 -856 -11 -18 -32 -37 -46
-42 -16 -7 -1150 -9 -3215 -8 l-3189 3 -27 28 -28 27 -3 835 c-3 924 -5 881
61 910 49 21 6351 22 6402 1z"/>
<path d="M2160 1443 c0 -180 1 -188 25 -229 35 -59 89 -84 183 -84 106 0 171
32 210 105 13 24 17 68 20 213 l4 182 -61 0 -61 0 0 -159 c0 -90 -5 -172 -11
-190 -29 -84 -165 -79 -188 7 -6 20 -11 106 -11 190 l0 152 -55 0 -55 0 0
-187z"/>
<path d="M2670 1380 l0 -251 53 3 52 3 0 167 c0 91 2 164 4 162 3 -2 46 -77
96 -167 l92 -162 66 -3 67 -3 0 251 0 250 -55 0 -55 0 -2 -162 -3 -162 -91
159 -91 160 -67 3 -66 3 0 -251z"/>
<path d="M3180 1379 l0 -251 138 4 c115 3 143 7 178 25 85 45 128 121 128 228
0 111 -40 180 -129 221 -44 21 -65 24 -182 24 l-133 0 0 -251z m273 136 c36
-23 61 -93 54 -150 -14 -97 -56 -135 -152 -135 l-55 0 0 156 0 157 63 -5 c35
-3 76 -13 90 -23z"/>
<path d="M3690 1380 l0 -250 205 0 205 0 0 50 0 50 -150 0 -150 0 0 55 0 55
130 0 130 0 0 45 0 44 -127 3 -128 3 -3 53 -3 52 140 0 141 0 0 45 0 45 -195
0 -195 0 0 -250z"/>
<path d="M4160 1380 l0 -250 55 0 55 0 0 95 0 95 54 0 55 0 37 -62 c74 -125
77 -128 145 -128 32 0 59 3 59 7 0 3 -27 48 -61 100 l-61 94 42 37 c83 75 72
195 -23 241 -38 19 -61 21 -200 21 l-157 0 0 -250z m284 149 c44 -21 42 -84
-4 -109 -10 -5 -53 -10 -94 -10 l-76 0 0 65 0 65 75 0 c41 0 85 -5 99 -11z"/>
<path d="M717 887 c-52 -17 -103 -60 -129 -110 -18 -34 -22 -59 -23 -132 0
-80 3 -96 28 -140 74 -135 275 -164 390 -56 25 23 57 71 57 85 0 2 -23 12 -52
22 -41 13 -53 14 -56 4 -3 -7 -17 -26 -31 -43 -58 -64 -179 -39 -208 43 -29
85 -5 198 48 225 61 32 154 11 177 -39 11 -25 12 -25 58 -11 25 7 49 17 52 20
14 13 -37 81 -82 109 -38 24 -60 30 -119 32 -40 2 -89 -2 -110 -9z"/>
<path d="M1226 885 c-101 -36 -156 -119 -156 -238 0 -77 19 -133 61 -181 76
-86 216 -108 321 -49 92 52 140 165 119 280 -13 70 -32 104 -81 146 -65 55
-178 73 -264 42z m164 -100 c52 -27 75 -103 59 -190 -13 -69 -51 -106 -116
-112 -89 -8 -143 53 -143 161 0 66 26 126 62 143 33 17 104 15 138 -2z"/>
<path d="M2235 883 c-87 -32 -122 -124 -75 -201 23 -37 53 -52 150 -76 99 -25
120 -36 127 -64 10 -40 -26 -62 -99 -62 -48 0 -63 4 -82 23 -13 13 -25 29 -27
36 -3 9 -17 10 -54 4 -65 -11 -71 -36 -20 -92 45 -49 88 -64 185 -64 94 0 141
15 180 59 25 29 30 43 30 85 0 98 -32 126 -185 165 -111 28 -136 53 -95 94 14
14 33 20 66 20 38 0 51 -5 74 -30 27 -29 32 -30 79 -24 58 7 63 19 31 71 -27
45 -71 64 -159 69 -56 3 -89 0 -126 -13z"/>
<path d="M4197 887 c-89 -29 -146 -108 -155 -214 -9 -120 33 -211 121 -258 44
-24 63 -29 127 -29 62 0 84 5 120 25 39 21 110 98 110 118 0 4 -23 15 -52 26
-41 14 -53 16 -56 5 -3 -7 -17 -26 -31 -43 -56 -62 -174 -41 -207 38 -32 78
-7 203 47 230 61 32 154 11 176 -38 12 -25 12 -25 59 -11 26 8 49 16 52 19 13
12 -40 83 -82 109 -38 24 -60 30 -119 32 -40 2 -89 -2 -110 -9z"/>
<path d="M5332 885 c-104 -32 -156 -111 -157 -235 0 -94 23 -157 74 -203 50
-45 100 -62 183 -61 183 3 289 163 232 353 -37 126 -186 192 -332 146z m176
-110 c75 -63 64 -238 -18 -280 -60 -31 -147 -9 -175 45 -40 77 -27 190 26 234
43 36 124 37 167 1z"/>
<path d="M1630 640 l0 -250 55 0 55 0 2 168 3 167 94 -168 95 -168 65 3 66 3
3 248 2 247 -55 0 -55 0 -2 -167 -3 -168 -95 168 -95 167 -67 0 -68 0 0 -250z"/>
<path d="M2570 845 l0 -45 80 0 80 0 0 -205 0 -205 60 0 60 0 0 205 0 205 80
0 80 0 0 45 0 45 -220 0 -220 0 0 -45z"/>
<path d="M3040 640 l0 -250 60 0 60 0 0 90 0 91 57 -3 57 -3 47 -79 c26 -43
51 -82 57 -88 5 -5 37 -8 70 -6 l61 3 -63 100 -64 99 29 18 c98 60 91 211 -14
258 -36 17 -66 20 -199 20 l-158 0 0 -250z m290 147 c19 -9 26 -22 28 -49 5
-53 -22 -68 -120 -68 l-78 0 0 65 0 65 73 0 c39 0 83 -6 97 -13z"/>
<path d="M3552 693 c3 -189 4 -200 26 -231 37 -52 93 -75 182 -75 84 0 122 12
163 51 57 54 61 72 65 270 l4 182 -61 0 -61 0 0 -159 c0 -90 -5 -172 -11 -190
-13 -36 -53 -61 -99 -61 -84 0 -100 40 -100 250 l0 160 -56 0 -55 0 3 -197z"/>
<path d="M4530 845 l0 -45 75 0 75 0 2 -202 3 -203 58 -3 57 -3 0 206 0 205
80 0 80 0 0 45 0 45 -215 0 -215 0 0 -45z"/>
<path d="M5000 640 l0 -250 55 0 55 0 0 250 0 250 -55 0 -55 0 0 -250z"/>
<path d="M5740 640 l0 -250 50 0 50 0 2 170 3 169 95 -167 95 -167 68 -3 67
-3 0 251 0 250 -55 0 -55 0 -2 -165 -3 -165 -94 165 -93 165 -64 0 -64 0 0
-250z"/>
</g>
</svg>
